#!OML:ASF X:\für Bonn\!DataBase\2005_08_12_Daniel\c3d\Daniel.ASF
:FULLY-SPECIFIED
:DEGREES
71
root 2.99943 14.7439 -4.39238 -1626.84 153.648 184.356
lowerback 54.7539 -6.65584 5.87273
upperback 11.827 -4.08615 -2.27171
thorax -8.107 -1.31419 -3.38742
lowerneck 8.53921 7.65956 2.05397
upperneck 10.5169 10.6243 -5.80469
head 2.39897 5.24043 -2.24675
rclavicle 4.77083e-015 -2.98177e-014
rhumerus -383.174 8.74094 279.684
rradius 38.178
rwrist 7.31539
rhand -17.19 739.006
rfingers 7.12502
rthumb 9.05204 709.22
lclavicle 4.77083e-015 -2.98177e-014
lhumerus -557.171 184.84 -460.447
lradius 53.3405
lwrist -14.4437
lhand -14.0572 -727.958
lfingers 7.12502
lthumb 12.0739 21.6733
rfemur -586.014 -163.462 566.379
rtibia 65.2976
rfoot -9.30692 7.32974
rtoes 18.2038
lfemur -21.0598 8.65767 -14.253
ltibia 96.1128
lfoot -4.15735 -15.9521
ltoes 3.37506
72
root 3.11359 14.7043 -4.36608 -1627.05 155.016 184.181
lowerback 55.809 -6.52429 5.66102
upperback 11.8911 -4.01051 -2.53096
thorax -8.12833 -1.26092 -3.59396
lowerneck 8.52994 7.84374 1.88788
upperneck 10.4765 10.8421 -5.78339
head 2.38626 5.33868 -2.21053
rclavicle -1.23246e-014 1.31198e-014
rhumerus -382.898 9.97422 279.732
rradius 39.6687
rwrist 6.52087
rhand -18.0398 739.419
rfingers 7.12502
rthumb 8.23196 709.599
lclavicle -1.23246e-014 1.31198e-014
lhumerus -556.166 185.496 -460.977
lradius 53.2112
lwrist -14.3258
lhand -14.2448 -728.122
lfingers 7.12502
lthumb 11.893 21.5205
rfemur -586.186 -163.296 566.638
rtibia 66.0314
rfoot -9.09777 8.44618
rtoes 18.7609
lfemur -22.2776 8.69845 -14.1706
ltibia 96.7774
lfoot -5.3229 -16.1894
ltoes 3.17472
73
root 3.22709 14.6626 -4.34049 -1627.29 156.369 183.99
lowerback 56.8968 -6.39153 5.44517
upperback 11.9318 -3.94414 -2.80378
thorax -8.16875 -1.21137 -3.81291
lowerneck 8.5223 8.01872 1.76033
upperneck 10.4359 11.0496 -5.75542
head 2.37425 5.4334 -2.17898
rclavicle 1.19271e-015 2.00773e-014
rhumerus -382.574 11.1549 279.818
rradius 41.064
rwrist 5.75311
rhand -18.7481 739.827
rfingers 7.12502
rthumb 7.54832 709.981
lclavicle 1.19271e-015 2.00773e-014
lhumerus -555.155 186.178 -461.606
lradius 53.0887
lwrist -14.0372
lhand -14.5272 -728.327
lfingers 7.12502
lthumb 11.6207 21.3308
rfemur -586.349 -163.126 566.902
rtibia 66.7716
rfoot -8.91215 9.46875
rtoes 19.2329
lfemur -23.4628 8.74929 -14.039
ltibia 97.4158
lfoot -6.53586 -16.3678
ltoes 2.56879
74
root 3.34161 14.6212 -4.31298 -1627.49 157.699 183.824
lowerback 57.9325 -6.25016 5.20352
upperback 11.9921 -3.8955 -3.08167
thorax -8.1748 -1.16887 -4.02371
lowerneck 8.417 8.1836 1.65654
upperneck 10.4283 11.251 -5.7615
head 2.39331 5.52338 -2.15776
rclavicle 1.23246e-014 2.64384e-014
rhumerus -382.142 12.1403 279.962
rradius 42.3197
rwrist 5.24619
rhand -19.314 740.286
rfingers 7.12502
rthumb 7.00203 710.422
lclavicle 1.23246e-014 2.64384e-014
lhumerus -554.124 186.855 -462.323
lradius 53.0554
lwrist -13.6523
lhand -14.8298 -728.498
lfingers 7.12502
lthumb 11.3289 21.1763
rfemur -586.555 -162.888 567.163
rtibia 67.5097
rfoot -8.7188 10.4409
rtoes 19.48
lfemur -24.6477 8.73902 -13.9374
ltibia 98.0076
lfoot -7.63451 -16.4562
ltoes 1.84733
75
root 3.45602 14.5803 -4.28352 -1627.66 158.958 183.669
lowerback 58.9364 -6.10666 4.93573
upperback 12.0271 -3.86848 -3.34192
thorax -8.19797 -1.13857 -4.19794
lowerneck 8.35489 8.33986 1.64167
upperneck 10.4173 11.4509 -5.83136
head 2.41425 5.61574 -2.17428
rclavicle -2.04748e-014 2.64384e-014
rhumerus -381.704 13.0563 280.138
rradius 43.5274
rwrist 4.78628
rhand -19.7065 740.643
rfingers 7.12502
rthumb 6.62312 710.766
lclavicle -2.04748e-014 2.64384e-014
lhumerus -553.106 187.544 -463.101
lradius 53.0271
lwrist -13.1771
lhand -15.1882 -728.622
lfingers 7.12502
lthumb 10.9832 21.0707
rfemur -586.805 -162.567 567.419
rtibia 68.2405
rfoot -8.51974 11.3258
rtoes 19.7089
lfemur -25.8567 8.61214 -13.8472
ltibia 98.5645
lfoot -8.54171 -16.4491
ltoes 1.15656
